Coordinates
version=1
nRows=16
nColumns=40
inDegrees=yes

Units are S.I. units (second, meters, Newtons, ...)
Angles are in degrees.

endheader
time	pelvis_tilt	pelvis_list	pelvis_rotation	pelvis_tx	pelvis_ty	pelvis_tz	hip_flexion_r	hip_adduction_r	hip_rotation_r	knee_angle_r	knee_angle_r_beta	ankle_angle_r	subtalar_angle_r	mtp_angle_r	hip_flexion_l	hip_adduction_l	hip_rotation_l	knee_angle_l	knee_angle_l_beta	ankle_angle_l	subtalar_angle_l	mtp_angle_l	lumbar_extension	lumbar_bending	lumbar_rotation	arm_flex_r	arm_add_r	arm_rot_r	elbow_flex_r	pro_sup_r	wrist_flex_r	wrist_dev_r	arm_flex_l	arm_add_l	arm_rot_l	elbow_flex_l	pro_sup_l	wrist_flex_l	wrist_dev_l
      0.46000000	     -2.47038523	     -4.82673018	     -0.71796674	     -0.59272369	      0.86739998	     -1.00129267	     31.94159762	      5.49331257	     -9.70684319	    -31.79524980	     -0.55493180	     -2.82501329	    -10.68741723	      7.92755609	    -13.04810333	      3.01963974	      6.23304662	    -26.02443441	     -0.45421207	      2.95460919	     -0.51499133	     -6.20367472	     -6.33724534	     10.26760509	     -4.95876247	      0.01502447	    -10.08715600	     14.99733713	      9.22133108	     89.95437384	      0.00000000	      0.00000000	     11.82346923	     10.78563131	     -8.76078459	     49.27039017	     89.95437384	      0.00000000	      0.00000000
      0.47000000	     -2.39301214	     -4.97098183	     -0.56887560	     -0.57782225	      0.86957988	     -1.00069145	     30.95201783	      5.88746711	     -9.14121137	    -32.13755625	     -0.56090617	     -1.65467470	    -10.95525767	      7.77108876	    -11.91471515	      3.47950659	      6.85058196	    -29.13673813	     -0.50853201	     -0.61015319	      0.62921293	     -5.59828526	     -6.20369146	     10.34238625	     -4.68492879	      0.05049005	     -9.97617767	     15.25348659	      9.05858409	     89.95437384	      0.00000000	      0.00000000	     11.08605742	     10.54731962	     -8.60166947	     49.26892589	     89.95437384	      0.00000000	      0.00000000
      0.48000000	     -2.71044386	     -5.32878043	     -0.47578563	     -0.56353259	      0.87133293	     -0.99953962	     30.17290589	      6.69024989	     -8.38041103	    -31.94800850	     -0.55759794	     -1.11003535	    -12.33692240	      8.40259886	     -9.86114673	      4.54301620	      8.24908451	    -32.82573196	     -0.57291710	     -5.06694342	      0.56690082	     -5.45294853	     -5.68935891	     10.59490374	     -4.39255162	      0.07440355	     -9.91159691	     15.98121870	      9.08729841	     89.95437384	      0.00000000	      0.00000000	     10.28991308	     10.12391748	     -7.99677830	     49.06431843	     89.95437384	      0.00000000	      0.00000000
      0.49000000	     -2.75976881	     -5.35348356	     -0.23572818	     -0.54924201	      0.87355149	     -0.99909062	     29.06523498	      6.85105533	     -8.17307696	    -31.85861104	     -0.55603766	      0.04600678	    -12.53687907	      9.23223466	     -8.15905567	      4.90198288	      8.34085180	    -35.95635314	     -0.62755675	     -9.93118578	      2.66675417	     -4.97574295	     -5.44525101	     10.51569700	     -4.08524910	      0.06810354	     -9.90389807	     16.69729690	      9.22690178	     89.95437384	      0.00000000	      0.00000000	      9.80106264	      9.77617517	     -7.97749165	     48.38717375	     89.95437384	      0.00000000	      0.00000000
      0.50000000	     -2.68629329	     -5.35021425	      0.11737616	     -0.53502208	      0.87596563	     -0.99880513	     27.70982160	      6.84712243	     -8.28596674	    -31.57610110	     -0.55110693	      1.18321437	    -12.18523024	      9.15337475	     -6.42933010	      5.16636990	      7.82242101	    -39.10318938	     -0.68247940	    -13.76803851	      4.28141114	     -4.48477410	     -5.34490053	     10.39369430	     -3.83777614	      0.06293875	     -9.85832608	     16.89451107	      9.53940470	     89.95437384	      0.00000000	      0.00000000	      9.35214975	      9.45698938	     -8.07451582	     47.54413451	     89.95437384	      0.00000000	      0.00000000
      0.51000000	     -2.61562844	     -5.38190402	      0.50304143	     -0.52111206	      0.87829630	     -0.99869505	     26.29346696	      6.84059147	     -8.51419263	    -31.12205395	     -0.54318231	      2.30527182	    -11.85338906	      8.96726271	     -4.54481584	      5.37171783	      6.97398915	    -42.37218692	     -0.73953417	    -15.68982071	      5.30539534	     -4.39201089	     -5.27201768	     10.32677147	     -3.56200854	      0.18330580	     -9.84635877	     16.98863515	      9.80160301	     89.95437384	      0.00000000	      0.00000000	      9.04819459	      9.05199322	     -8.12004369	     46.39402165	     89.95437384	      0.00000000	      0.00000000
      0.52000000	     -2.54493906	     -5.50918492	      0.88372511	     -0.50745748	      0.88032091	     -0.99847997	     24.88784092	      6.90061996	     -8.88457390	    -30.63276681	     -0.53464264	      3.33892210	    -11.35392030	      8.70612336	     -2.52760190	      5.76384887	      6.56577369	    -45.69823400	     -0.79758465	    -15.32107226	      6.09916675	     -4.57947218	     -5.21361597	     10.34771816	     -3.21580834	      0.29596248	     -9.85943056	     17.22789975	     10.10242509	     89.95437384	      0.00000000	      0.00000000	      8.83494656	      8.68986031	     -8.40918711	     45.02031040	     89.95437384	      0.00000000	      0.00000000
      0.53000000	     -2.94901543	     -5.71898413	      1.36302839	     -0.49461633	      0.88137198	     -0.99853382	     24.12366003	      6.92259406	     -9.59865548	    -30.17904503	     -0.52672370	      3.90469832	    -10.81894419	      8.50539461	      0.34025835	      6.24730749	      6.20065422	    -49.26891356	     -0.85990476	    -13.47701156	      6.84110162	     -5.26788496	     -4.69056018	     10.45725960	     -3.00384117	      0.31423499	    -10.06062099	     17.80924866	     10.84552706	     89.95437384	      0.00000000	      0.00000000	      8.57774075	      8.43407104	     -8.87468647	     43.77272022	     89.95437384	      0.00000000	      0.00000000
      0.54000000	     -2.97872327	     -5.85934725	      1.72362590	     -0.48171372	      0.88302947	     -0.99859650	     22.85160084	      6.95345997	    -10.12024550	    -29.59168375	     -0.51647231	      4.61901036	    -10.22741880	      8.22484970	      2.69404900	      6.58838638	      6.04438677	    -52.17721794	     -0.91066425	    -11.93693635	      7.64341425	     -5.80176590	     -4.64067911	     10.48974708	     -2.60693376	      0.51743347	    -10.23578432	     18.25689908	     11.37963183	     89.95437384	      0.00000000	      0.00000000	      8.45179835	      8.15800372	     -9.40107769	     42.29314805	     89.95437384	      0.00000000	      0.00000000
      0.55000000	     -2.81130763	     -5.93057173	      1.92881182	     -0.46871095	      0.88500010	     -0.99849643	     21.25633590	      7.03240383	    -10.36845709	    -28.83844125	     -0.50332575	      5.41198904	     -9.63660360	      7.93652891	      4.70850648	      6.86237832	      6.15082491	    -54.52640843	     -0.95166536	    -10.67267161	      8.15571443	     -6.09807910	     -4.84894825	     10.44030411	     -2.03602086	      0.88093939	    -10.35543157	     18.49592401	     11.73326115	     89.95437384	      0.00000000	      0.00000000	      8.32695138	      7.80903529	     -9.71316093	     40.68681046	     89.95437384	      0.00000000	      0.00000000
      0.56000000	     -2.57860565	     -5.97390590	      2.12583371	     -0.45561146	      0.88694355	     -0.99826790	     19.57409611	      7.08884980	    -10.73639336	    -28.03483259	     -0.48930013	      6.12410437	     -9.05039726	      7.66476994	      6.62416015	      7.08823770	      6.20766193	    -56.44361040	     -0.98512684	     -9.53033975	      8.34145221	     -6.39649560	     -5.12361762	     10.33564041	     -1.49050120	      1.28246046	    -10.46388429	     18.73068461	     12.13440904	     89.95437384	      0.00000000	      0.00000000	      8.13784184	      7.60133338	    -10.15680166	     39.14083230	     89.95437384	      0.00000000	      0.00000000
      0.57000000	     -2.37044917	     -5.91643385	      2.13537943	     -0.44269970	      0.88876472	     -0.99793140	     17.89709839	      7.09874570	    -10.96056877	    -27.16811290	     -0.47417302	      6.71227378	     -8.36324304	      7.37146000	      8.50407392	      7.10283167	      6.25110776	    -57.95345418	     -1.01147859	     -8.07975426	      8.24096088	     -6.77390087	     -5.43076917	     10.11025160	     -0.78240466	      1.78145006	    -10.59418410	     19.03754054	     12.50124091	     89.95437384	      0.00000000	      0.00000000	      7.88760643	      7.38112683	    -10.48175387	     37.63569788	     89.95437384	      0.00000000	      0.00000000
      0.58000000	     -2.10739408	     -5.81105385	      2.14569646	     -0.42949259	      0.89049140	     -0.99755520	     16.10072454	      7.08122626	    -11.07540813	    -26.27682713	     -0.45861715	      7.32149229	     -7.64170476	      7.05754600	     10.19615496	      7.01388622	      6.21899171	    -58.95117045	     -1.02889202	     -6.56438180	      7.86007663	     -7.17119931	     -5.74755668	      9.80992927	     -0.08064403	      2.32605797	    -10.67908022	     19.37945339	     12.70347305	     89.95437384	      0.00000000	      0.00000000	      7.54448893	      7.25042516	    -10.83644124	     36.18628484	     89.95437384	      0.00000000	      0.00000000
      0.59000000	     -1.68599548	     -5.70314709	      2.14670877	     -0.41605640	      0.89230970	     -0.99704199	     14.07349323	      7.08118907	    -11.24688714	    -25.25068533	     -0.44070760	      7.87455954	     -6.76949926	      6.66368670	     11.59528883	      6.97231569	      6.32288744	    -59.51632535	     -1.03875584	     -4.93157835	      7.28086454	     -7.72091291	     -6.21350960	      9.49122091	      0.55902763	      2.90202504	    -10.79805830	     19.82795040	     13.04754312	     89.95437384	      0.00000000	      0.00000000	      7.10694700	      7.20767129	    -11.10602418	     34.80475926	     89.95437384	      0.00000000	      0.00000000
      0.60000000	     -1.02818550	     -5.48477382	      2.09003736	     -0.40257547	      0.89439797	     -0.99668628	     11.75383895	      6.93792243	    -11.46433148	    -24.16540183	     -0.42176583	      8.30779213	     -5.68992745	      5.93574419	     12.57504914	      6.80010148	      6.51916600	    -59.51878686	     -1.03879880	     -3.65883566	      6.52802122	     -8.71585527	     -6.98668985	      9.08146893	      1.26597865	      3.55428094	    -11.01844758	     20.78733143	     13.44043217	     89.95437384	      0.00000000	      0.00000000	      6.61968800	      7.28309584	    -11.61943187	     33.60899649	     89.95437384	      0.00000000	      0.00000000
      0.61000000	     -1.03862141	     -5.13738401	      2.00675701	     -0.38966984	      0.89523992	     -0.99622069	     10.44619717	      6.62237153	    -11.64671792	    -23.55452669	     -0.41110404	      8.70721039	     -5.51609821	      5.75462667	     14.40628353	      6.46526182	      6.78328816	    -59.39904537	     -1.03670891	     -2.82072694	      6.35041973	     -8.81649728	     -6.98081421	      8.47249454	      1.73010818	      4.35655842	    -11.00586882	     20.90982640	     13.48178380	     89.95437384	      0.00000000	      0.00000000	      5.94849655	      7.38045747	    -11.69074822	     32.43508470	     89.95437384	      0.00000000	      0.00000000
